<svg width="240" height="400" viewBox="0 0 240 400" fill="none" xmlns="http://www.w3.org/2000/svg">
  <rect width="240" height="400" rx="120" fill="#E0E7FF"/>
  <!-- Shadow -->
  <ellipse cx="120" cy="370" rx="50" ry="12" fill="#A5B4FC"/>
  <!-- Legs -->
  <rect x="90" y="260" width="18" height="80" rx="9" fill="#60A5FA"/>
  <rect x="132" y="260" width="18" height="80" rx="9" fill="#60A5FA"/>
  <!-- Shoes -->
  <ellipse cx="99" cy="345" rx="13" ry="7" fill="#22223B"/>
  <ellipse cx="141" cy="345" rx="13" ry="7" fill="#22223B"/>
  <!-- Body -->
  <rect x="85" y="150" width="70" height="110" rx="30" fill="#60A5FA"/>
  <!-- Arms -->
  <rect x="60" y="170" width="20" height="70" rx="10" fill="#FBBF24" transform="rotate(-15 60 170)"/>
  <rect x="160" y="170" width="20" height="70" rx="10" fill="#FBBF24" transform="rotate(15 160 170)"/>
  <!-- Hands -->
  <ellipse cx="65" cy="235" rx="10" ry="8" fill="#F59E42"/>
  <ellipse cx="175" cy="235" rx="10" ry="8" fill="#F59E42"/>
  <!-- Head -->
  <ellipse cx="120" cy="120" rx="38" ry="40" fill="#FCD34D"/>
  <!-- Face details -->
  <ellipse cx="108" cy="120" rx="5" ry="8" fill="#fff"/>
  <ellipse cx="132" cy="120" rx="5" ry="8" fill="#fff"/>
  <ellipse cx="108" cy="122" rx="2" ry="4" fill="#222"/>
  <ellipse cx="132" cy="122" rx="2" ry="4" fill="#222"/>
  <ellipse cx="120" cy="140" rx="8" ry="4" fill="#F59E42"/>
  <!-- Hair -->
  <ellipse cx="120" cy="95" rx="30" ry="18" fill="#22223B"/>
  <ellipse cx="120" cy="85" rx="20" ry="10" fill="#37375B"/>
  <ellipse cx="120" cy="90" rx="15" ry="7" fill="#22223B"/>
</svg> 